<?xml version="1.0" encoding="UTF-8" standalone="no"?>
<!-- Created with Inkscape (http://www.inkscape.org/) -->

<svg
   width="1000mm"
   height="1000mm"
   viewBox="0 0 1000 1000"
   version="1.1"
   id="svg1"
   xml:space="preserve"
   xmlns="http://www.w3.org/2000/svg"
   xmlns:svg="http://www.w3.org/2000/svg"><defs
     id="defs1" /><g
     id="layer1"
     transform="translate(-1392.9611,-6849.992)"><path
       id="path9"
       style="stroke:#6e9862;stroke-width:0.629918;stroke-opacity:0"
       d="m 2392.6462,7349.9924 a 499.68503,499.68503 0 0 1 -499.685,499.685 499.68503,499.68503 0 0 1 -499.6851,-499.685 499.68503,499.68503 0 0 1 499.6851,-499.685 499.68503,499.68503 0 0 1 499.685,499.685 z" /><path
       d="m 2072.2373,7108.1728 q 38.9307,0 72.8919,14.0816 34.7893,13.2529 59.6388,38.1023 24.8494,24.0214 38.931,57.1542 14.0813,32.3043 14.0813,70.4069 v 250.1517 h -82.8317 v -221.9891 q 0,-30.6475 -10.7682,-53.8405 -9.9398,-23.1929 -26.506,-38.931 -16.5666,-15.7378 -38.1027,-24.0211 -20.708,-8.2833 -42.2441,-8.2833 -25.6779,0 -47.214,9.9398 -20.708,9.9398 -37.2746,27.3345 -15.7378,16.5665 -24.8495,41.416 -8.2829,24.0211 -8.2829,53.8404 v 214.5343 h -83.6602 v -221.9891 q 0,-30.6475 -9.9398,-53.8405 -9.9397,-23.1929 -26.506,-38.931 -16.5665,-15.7378 -38.1026,-24.0211 -20.708,-8.2833 -43.0726,-8.2833 -24.8494,0 -46.3859,9.9398 -21.5361,9.9398 -37.2742,28.1629 -15.7381,17.3946 -24.8495,41.416 -8.2832,24.0211 -8.2832,53.8405 v 213.7058 h -83.6599 V 7118.941 h 83.6599 v 50.5274 q 10.7682,-15.7381 25.6779,-26.5063 15.7381,-11.5963 33.1327,-19.0512 17.3946,-8.2832 35.6177,-11.5963 19.0512,-4.1418 37.2742,-4.1418 26.506,0 50.5274,6.6268 24.0211,5.798 44.7291,17.3946 20.708,10.7679 37.2742,26.506 16.5666,15.7381 28.9913,35.6177 11.5963,-21.5361 28.991,-37.2742 17.3946,-16.5665 38.1026,-26.5063 21.5361,-10.7679 43.9007,-16.5663 23.1929,-5.7983 46.3859,-5.7983 z"
       id="text10"
       style="font-weight:600;font-size:266.667px;line-height:0.3;font-family:'ZT Gatha';-inkscape-font-specification:'ZT Gatha Semi-Bold';white-space:pre;fill:#ffffff;stroke:#6e9862;stroke-width:7.12248;stroke-opacity:0"
       aria-label="m" /></g></svg>
