<?xml version="1.0" encoding="UTF-8" standalone="no"?>
<!-- Created with Inkscape (http://www.inkscape.org/) -->

<svg
   width="885.77405mm"
   height="241.03015mm"
   viewBox="0 0 885.77405 241.03015"
   version="1.1"
   id="svg1"
   xml:space="preserve"
   xmlns="http://www.w3.org/2000/svg"
   xmlns:svg="http://www.w3.org/2000/svg"><defs
     id="defs1" /><g
     id="layer1"
     transform="translate(-315.16218,-8.2128646)"><circle
       style="fill:#4bbc5a;fill-opacity:1;stroke:#6e9862;stroke-width:0.421855;stroke-opacity:0"
       id="path4-8"
       cx="1169.4077"
       cy="39.741375"
       r="31.317583" /><g
       id="text2"
       style="font-weight:bold;font-size:266.667px;line-height:0.3;font-family:Gerhaus;-inkscape-font-specification:'Gerhaus Bold';white-space:pre;stroke:#6e9862;stroke-width:2.293;stroke-opacity:0"
       transform="matrix(1.196805,0,0,1.196805,235.01507,-476.23442)"
       aria-label="   macei"><path
         style="font-family:'ZT Gatha';-inkscape-font-specification:'ZT Gatha Bold';fill:#ffffff"
         d="m 240.11429,463.4318 q 12.53335,0 23.4667,4.53334 11.20001,4.26667 19.20002,12.26668 8.00001,7.73334 12.53335,18.40002 4.53334,10.40002 4.53334,22.6667 v 80.53343 H 273.181 v -71.46675 q 0,-9.86668 -3.46667,-17.33336 -3.20001,-7.46667 -8.53335,-12.53335 -5.33334,-5.06667 -12.26668,-7.73334 -6.66667,-2.66667 -13.60001,-2.66667 -8.26668,0 -15.20002,3.2 -6.66668,3.20001 -12.00002,8.80002 -5.06667,5.33334 -8.00001,13.33335 -2.66667,7.73334 -2.66667,17.33335 v 69.06675 h -26.93336 v -71.46675 q 0,-9.86668 -3.20001,-17.33336 -3.2,-7.46667 -8.53334,-12.53335 -5.33334,-5.06667 -12.26668,-7.73334 -6.66668,-2.66667 -13.86669,-2.66667 -8.00001,0 -14.93335,3.2 -6.93334,3.20001 -12.00001,9.06668 -5.06668,5.60001 -8.000013,13.33335 -2.66667,7.73334 -2.66667,17.33336 v 68.80008 H 68.114081 v -134.9335 h 26.933366 v 16.26669 q 3.466671,-5.06667 8.266673,-8.53334 5.06668,-3.73334 10.66668,-6.13335 5.60001,-2.66667 11.46668,-3.73333 6.13335,-1.33334 12.00002,-1.33334 8.53334,0 16.26669,2.13334 7.73334,1.86667 14.40001,5.6 6.66668,3.46668 12.00002,8.53335 5.33334,5.06667 9.33334,11.46668 3.73334,-6.93334 9.33335,-12.00002 5.6,-5.33334 12.26668,-8.53334 6.93334,-3.46667 14.13335,-5.33334 7.46668,-1.86667 14.93335,-1.86667 z"
         id="path6" /><path
         style="font-family:'ZT Gatha';-inkscape-font-specification:'ZT Gatha Bold';fill:#4bbc5a"
         d="m 437.4479,466.63181 h 26.93336 V 601.83197 H 437.4479 v -16.80002 q -8.80001,9.33334 -20.80003,14.66668 -12.00001,5.33334 -26.13336,5.33334 -14.13335,0 -26.93337,-5.6 -12.53335,-5.60001 -21.86669,-15.20002 -9.33335,-9.60001 -14.93336,-22.40003 -5.33334,-13.06668 -5.33334,-27.73337 0,-14.66668 5.33334,-27.4667 5.60001,-12.80001 14.93336,-22.40002 9.33334,-9.60001 21.86669,-15.20002 12.80002,-5.60001 26.93337,-5.60001 14.13335,0 26.13336,5.33334 12.00002,5.33334 20.80003,14.66669 z m -46.93339,111.73347 q 8.80001,0 16.53335,-3.46668 7.73334,-3.46667 13.33335,-9.33334 5.86667,-6.13334 9.06668,-14.13335 3.46667,-8.00001 3.46667,-17.33336 0,-9.06667 -3.46667,-17.06668 -3.20001,-8.00001 -9.06668,-13.86669 -5.60001,-6.13334 -13.33335,-9.60001 -7.73334,-3.46667 -16.53335,-3.46667 -8.80001,0 -16.53336,3.46667 -7.46667,3.46667 -13.33335,9.60001 -5.86667,5.86668 -9.33334,13.86669 -3.20001,8.00001 -3.20001,17.06668 0,9.33335 3.20001,17.33336 3.46667,8.00001 9.33334,14.13335 5.86668,5.86667 13.33335,9.33334 7.73335,3.46668 16.53336,3.46668 z"
         id="path7" /><path
         style="font-family:'ZT Gatha';-inkscape-font-specification:'ZT Gatha Bold';fill:#ffffff"
         d="m 602.78131,583.69862 q -9.60002,9.86667 -22.40003,15.73335 -12.53335,5.6 -26.93337,5.6 -14.40002,0 -27.20003,-5.6 -12.53335,-5.60001 -21.86669,-15.20002 -9.33335,-9.60001 -14.93336,-22.40003 -5.33334,-13.06668 -5.33334,-27.73337 0,-14.66668 5.33334,-27.4667 5.60001,-12.80001 14.93336,-22.40002 9.33334,-9.60001 21.86669,-15.20002 12.80001,-5.60001 27.20003,-5.60001 14.40002,0 26.93337,5.86668 12.80001,5.6 22.40003,15.46668 l -18.93336,18.93336 q -5.60001,-6.40001 -13.60002,-9.86668 -7.73334,-3.73334 -16.80002,-3.73334 -8.80001,0 -16.53335,3.46667 -7.73334,3.46667 -13.60002,9.60001 -5.6,5.86668 -9.06668,13.86669 -3.2,8.00001 -3.2,17.06668 0,9.33335 3.2,17.33336 3.46668,8.00001 9.06668,14.13335 5.86668,5.86667 13.60002,9.33334 7.73334,3.46668 16.53335,3.46668 9.06668,0 16.80002,-3.46668 8.00001,-3.73333 13.60002,-10.13334 z m 33.06686,-42.13339 q 1.06667,8.00001 4.80001,14.66668 3.73333,6.66668 9.33334,11.73335 5.60001,4.80001 12.53335,7.73335 7.20001,2.66667 14.93335,2.66667 17.06669,0 26.93337,-6.40001 10.13334,-6.40001 16.26668,-21.33336 l 24.53337,10.93334 q -9.33335,21.8667 -25.8667,32.80004 -16.26669,10.66668 -41.86672,10.66668 -14.13335,0 -26.93336,-5.6 -12.53335,-5.60001 -21.8667,-15.20002 -9.33334,-9.60001 -14.93335,-22.40003 -5.33334,-13.06668 -5.33334,-27.73337 0,-14.66668 5.33334,-27.4667 5.60001,-12.80001 14.93335,-22.40002 9.33335,-9.60001 21.8667,-15.20002 12.80001,-5.60001 26.93336,-5.60001 14.40002,0 26.93337,5.60001 12.80001,5.60001 22.13336,15.20002 9.33334,9.60001 14.66668,22.40002 5.60001,12.80002 5.60001,27.4667 0,1.86667 -0.26667,3.73334 0,1.86667 0,3.73334 z m 82.13343,-19.20002 q -1.86666,-6.93334 -5.86667,-12.80002 -3.73334,-5.86667 -9.06668,-10.13334 -5.06667,-4.26668 -11.73334,-6.66668 -6.40001,-2.66667 -13.86669,-2.66667 -7.20001,0 -13.86668,2.66667 -6.66668,2.4 -12.00002,6.66668 -5.06667,4.26667 -9.06667,10.13334 -3.73334,5.86668 -5.33334,12.80002 z m 62.66676,-109.33347 q 7.46668,0 12.80002,5.60001 5.60001,5.33334 5.60001,12.80001 0,7.73335 -5.60001,13.06669 -5.33334,5.33333 -12.80002,5.33333 -8.00001,0 -13.33335,-5.33333 -5.33334,-5.33334 -5.33334,-13.06669 0,-7.46667 5.33334,-12.80001 5.33334,-5.60001 13.33335,-5.60001 z m -13.60001,54.1334 h 26.93336 v 134.66683 h -26.93336 z"
         id="path8" /></g></g></svg>
